<svg width="3378" height="2030" xmlns="http://www.w3.org/2000/svg" xmlns:xlink="http://www.w3.org/1999/xlink" xml:space="preserve" overflow="hidden"><defs><clipPath id="clip0"><rect x="3300" y="2444" width="3378" height="2030"/></clipPath><clipPath id="clip1"><rect x="3300" y="2444" width="3377" height="2030"/></clipPath><clipPath id="clip2"><rect x="3526" y="2755" width="3054" height="1495"/></clipPath><clipPath id="clip3"><rect x="3300" y="2444" width="3377" height="2030"/></clipPath><clipPath id="clip4"><rect x="3300" y="2444" width="3377" height="2030"/></clipPath><clipPath id="clip5"><rect x="3300" y="2444" width="3377" height="2030"/></clipPath><clipPath id="clip6"><rect x="3300" y="2444" width="3377" height="2030"/></clipPath><clipPath id="clip7"><rect x="3300" y="2444" width="3377" height="2030"/></clipPath><clipPath id="clip8"><rect x="3300" y="2444" width="3377" height="2030"/></clipPath><clipPath id="clip9"><rect x="3300" y="2444" width="3377" height="2030"/></clipPath><clipPath id="clip10"><rect x="3300" y="2444" width="3377" height="2030"/></clipPath><clipPath id="clip11"><rect x="3300" y="2444" width="3377" height="2030"/></clipPath><clipPath id="clip12"><rect x="3300" y="2444" width="3377" height="2030"/></clipPath><clipPath id="clip13"><rect x="3300" y="2444" width="3377" height="2030"/></clipPath><clipPath id="clip14"><rect x="3300" y="2444" width="3377" height="2030"/></clipPath><clipPath id="clip15"><rect x="3300" y="2444" width="3377" height="2030"/></clipPath><clipPath id="clip16"><rect x="3300" y="2444" width="3377" height="2030"/></clipPath><clipPath id="clip17"><rect x="3300" y="2444" width="3377" height="2030"/></clipPath><clipPath id="clip18"><rect x="3300" y="2444" width="3377" height="2030"/></clipPath><clipPath id="clip19"><rect x="3300" y="2444" width="3377" height="2030"/></clipPath><clipPath id="clip20"><rect x="3300" y="2444" width="3377" height="2030"/></clipPath><clipPath id="clip21"><rect x="3300" y="2444" width="3377" height="2030"/></clipPath><clipPath id="clip22"><rect x="3300" y="2444" width="3377" height="2030"/></clipPath><clipPath id="clip23"><rect x="3300" y="2444" width="3377" height="2030"/></clipPath><clipPath id="clip24"><rect x="3300" y="2444" width="3377" height="2030"/></clipPath><clipPath id="clip25"><rect x="3300" y="2444" width="3377" height="2030"/></clipPath><clipPath id="clip26"><rect x="3300" y="2444" width="3377" height="2030"/></clipPath><clipPath id="clip27"><rect x="3300" y="2444" width="3377" height="2030"/></clipPath><clipPath id="clip28"><rect x="3300" y="2444" width="3377" height="2030"/></clipPath><clipPath id="clip29"><rect x="3300" y="2444" width="3377" height="2030"/></clipPath><clipPath id="clip30"><rect x="3300" y="2444" width="3377" height="2030"/></clipPath><clipPath id="clip31"><rect x="3300" y="2444" width="3377" height="2030"/></clipPath><clipPath id="clip32"><rect x="3300" y="2444" width="3377" height="2030"/></clipPath><clipPath id="clip33"><rect x="3300" y="2444" width="3377" height="2030"/></clipPath></defs><g clip-path="url(#clip0)" transform="translate(-3300 -2444)"><rect x="3300" y="2444" width="3378" height="2030" fill="#FFFFFF"/><g clip-path="url(#clip1)"><path d="M3527 4060.13 6577 4060.13M3527 3874.13 6577 3874.13M3527 3688.12 6577 3688.12M3527 3501.11 6577 3501.11M3527 3315.11 6577 3315.11M3527 3128.1 6577 3128.1M3527 2942.1 6577 2942.1M3527 2755 6577 2755" stroke="#595959" stroke-width="2.29167" stroke-linejoin="round" stroke-miterlimit="10" fill="none"/></g><g clip-path="url(#clip2)"><path d="M3590.12 3256.11 3845.13 3256.11 3845.13 4247 3590.12 4247ZM3972.13 3200.1 4226.14 3200.1 4226.14 4247 3972.13 4247ZM4353.14 3310.11 4607.15 3310.11 4607.15 4247 4353.14 4247ZM4734.16 3388.11 4988.16 3388.11 4988.16 4247 4734.16 4247ZM5115.17 2955.1 5370.18 2955.1 5370.18 4247 5115.17 4247ZM5497.18 3254.11 5751.19 3254.11 5751.19 4247 5497.18 4247ZM5878.19 3330.11 6132.2 3330.11 6132.2 4247 5878.19 4247ZM6259.21 3290.11 6513.21 3290.11 6513.21 4247 6259.21 4247Z" fill="#1A56EC"/></g><g clip-path="url(#clip3)"><path d="M0 0 0.000360892 1492" stroke="#000000" stroke-width="4.58333" stroke-linejoin="round" stroke-miterlimit="10" fill="none" fill-rule="evenodd" transform="matrix(1 0 0 -1 3526.5 4247.5)"/></g><g clip-path="url(#clip4)"><path d="M3526.5 4247.5 6577.5 4247.5" stroke="#000000" stroke-width="4.58333" stroke-linejoin="round" stroke-miterlimit="10" fill="none" fill-rule="evenodd"/></g><g clip-path="url(#clip5)"><text font-family="Arial,Arial_MSFontService,sans-serif" font-weight="400" font-size="55" transform="matrix(1 0 0 1 3449.04 4265)">0</text></g><g clip-path="url(#clip6)"><text font-family="Arial,Arial_MSFontService,sans-serif" font-weight="400" font-size="55" transform="matrix(1 0 0 1 3418.45 4078)">50</text></g><g clip-path="url(#clip7)"><text font-family="Arial,Arial_MSFontService,sans-serif" font-weight="400" font-size="55" transform="matrix(1 0 0 1 3387.86 3892)">100</text></g><g clip-path="url(#clip8)"><text font-family="Arial,Arial_MSFontService,sans-serif" font-weight="400" font-size="55" transform="matrix(1 0 0 1 3387.86 3705)">150</text></g><g clip-path="url(#clip9)"><text font-family="Arial,Arial_MSFontService,sans-serif" font-weight="400" font-size="55" transform="matrix(1 0 0 1 3387.86 3519)">200</text></g><g clip-path="url(#clip10)"><text font-family="Arial,Arial_MSFontService,sans-serif" font-weight="400" font-size="55" transform="matrix(1 0 0 1 3387.86 3332)">250</text></g><g clip-path="url(#clip11)"><text font-family="Arial,Arial_MSFontService,sans-serif" font-weight="400" font-size="55" transform="matrix(1 0 0 1 3387.86 3146)">300</text></g><g clip-path="url(#clip12)"><text font-family="Arial,Arial_MSFontService,sans-serif" font-weight="400" font-size="55" transform="matrix(1 0 0 1 3387.86 2959)">350</text></g><g clip-path="url(#clip13)"><text font-family="Arial,Arial_MSFontService,sans-serif" font-weight="400" font-size="55" transform="matrix(1 0 0 1 3387.86 2773)">400</text></g><g clip-path="url(#clip14)"><text font-family="Arial,Arial_MSFontService,sans-serif" font-weight="400" font-size="55" transform="matrix(1 0 0 1 3687.04 4330)">All</text></g><g clip-path="url(#clip15)"><text font-family="Arial,Arial_MSFontService,sans-serif" font-weight="400" font-size="55" transform="matrix(1 0 0 1 4045.37 4330)">Men</text></g><g clip-path="url(#clip16)"><text font-family="Arial,Arial_MSFontService,sans-serif" font-weight="400" font-size="55" transform="matrix(1 0 0 1 4385.39 4330)">Women</text></g><g clip-path="url(#clip17)"><text font-family="Arial,Arial_MSFontService,sans-serif" font-weight="400" font-size="55" transform="matrix(1 0 0 1 4784.92 4332)">10</text></g><g clip-path="url(#clip18)"><text font-family="Arial,Arial_MSFontService,sans-serif" font-weight="400" font-size="55" transform="matrix(1 0 0 1 4846.11 4332)">–</text></g><g clip-path="url(#clip19)"><text font-family="Arial,Arial_MSFontService,sans-serif" font-weight="400" font-size="55" transform="matrix(1 0 0 1 4876.71 4332)">14</text></g><g clip-path="url(#clip20)"><text font-family="Arial,Arial_MSFontService,sans-serif" font-weight="400" font-size="55" transform="matrix(1 0 0 1 5166.19 4332)">15</text></g><g clip-path="url(#clip21)"><text font-family="Arial,Arial_MSFontService,sans-serif" font-weight="400" font-size="55" transform="matrix(1 0 0 1 5227.38 4332)">–</text></g><g clip-path="url(#clip22)"><text font-family="Arial,Arial_MSFontService,sans-serif" font-weight="400" font-size="55" transform="matrix(1 0 0 1 5257.98 4332)">24</text></g><g clip-path="url(#clip23)"><text font-family="Arial,Arial_MSFontService,sans-serif" font-weight="400" font-size="55" transform="matrix(1 0 0 1 5547.46 4332)">25</text></g><g clip-path="url(#clip24)"><text font-family="Arial,Arial_MSFontService,sans-serif" font-weight="400" font-size="55" transform="matrix(1 0 0 1 5608.65 4332)">–</text></g><g clip-path="url(#clip25)"><text font-family="Arial,Arial_MSFontService,sans-serif" font-weight="400" font-size="55" transform="matrix(1 0 0 1 5639.24 4332)">44</text></g><g clip-path="url(#clip26)"><text font-family="Arial,Arial_MSFontService,sans-serif" font-weight="400" font-size="55" transform="matrix(1 0 0 1 5928.73 4332)">45</text></g><g clip-path="url(#clip27)"><text font-family="Arial,Arial_MSFontService,sans-serif" font-weight="400" font-size="55" transform="matrix(1 0 0 1 5989.92 4332)">–</text></g><g clip-path="url(#clip28)"><text font-family="Arial,Arial_MSFontService,sans-serif" font-weight="400" font-size="55" transform="matrix(1 0 0 1 6020.51 4332)">64</text></g><g clip-path="url(#clip29)"><text font-family="Arial,Arial_MSFontService,sans-serif" font-weight="400" font-size="55" transform="matrix(1 0 0 1 6340.59 4332)">65</text></g><g clip-path="url(#clip30)"><text font-family="Arial,Arial_MSFontService,sans-serif" font-weight="400" font-size="55" transform="matrix(1 0 0 1 6401.78 4332)">–</text></g><g clip-path="url(#clip31)"><text font-family="Arial,Arial_MSFontService,sans-serif" font-weight="400" font-size="55" transform="matrix(1 0 0 1 3410 2688)">min/day</text></g><g clip-path="url(#clip32)"><text font-family="Arial,Arial_MSFontService,sans-serif" font-weight="400" font-size="55" transform="matrix(1 0 0 1 3378.53 4418)">Source: Statistics Finland, time use</text></g><g clip-path="url(#clip33)"><text font-family="Arial,Arial_MSFontService,sans-serif" font-weight="700" font-size="64" transform="matrix(1 0 0 1 3531.32 2585)">Average daily screen time in 2020 to 2021</text></g></g></svg>